<svg width="25" height="25" viewBox="0 0 25 25" fill="none" xmlns="http://www.w3.org/2000/svg">
<circle cx="12.5" cy="12.5" r="12.5" fill="#63C6DC"/>
<path d="M19.0833 11.7433H12.9367V5.59675C12.9367 5.2387 12.698 5 12.34 5C11.982 5 11.7433 5.2387 11.7433 5.59675V11.7433H5.59675C5.2387 11.7433 5 11.982 5 12.34C5 12.698 5.2387 12.9367 5.59675 12.9367H11.7433V19.0832C11.7433 19.4413 11.982 19.68 12.34 19.68C12.698 19.68 12.9367 19.4413 12.9367 19.0832V12.9367H19.0833C19.4413 12.9367 19.68 12.698 19.68 12.34C19.68 11.982 19.4413 11.7433 19.0833 11.7433Z" fill="white"/>
</svg>
