<svg width="24" height="21" viewBox="0 0 24 21" fill="none" xmlns="http://www.w3.org/2000/svg">
<path d="M19.5685 0.431064C16.762 -0.665551 13.8348 0.371787 11.994 3.06887C10.1532 0.371787 7.22605 -0.665551 4.41958 0.431064C1.70364 1.49804 -0.770877 4.69897 0.224966 9.17434C1.13028 13.1755 4.2687 16.169 6.71304 17.9769C9.36862 19.933 11.7526 20.9111 11.8733 20.9704C11.9035 21 11.9639 21 11.994 21C12.0242 21 12.0846 21 12.1147 20.9704C12.2053 20.9407 14.6194 19.933 17.275 17.9769C19.7495 16.169 22.8578 13.1755 23.7631 9.17434C24.7891 4.69897 22.3146 1.49804 19.5685 0.431064Z" fill="#FC0B0B"/>
</svg>
