<svg width="30" height="25" viewBox="0 0 30 25" fill="none" xmlns="http://www.w3.org/2000/svg">
<path d="M23.6942 0.513171C20.296 -0.792323 16.7517 0.442603 14.5228 3.65341C12.2939 0.442603 8.74954 -0.792323 5.35138 0.513171C2.06283 1.78338 -0.933404 5.59401 0.272397 10.9218C1.36858 15.6851 5.16868 19.2488 8.12837 21.4011C11.3438 23.7298 14.2305 24.8942 14.3766 24.9647C14.4132 25 14.4862 25 14.5228 25C14.5593 25 14.6324 25 14.6689 24.9647C14.7785 24.9294 17.7017 23.7298 20.9172 21.4011C23.9134 19.2488 27.677 15.6851 28.7731 10.9218C30.0155 5.59401 27.0193 1.78338 23.6942 0.513171ZM28.0424 10.7807C26.1423 18.9665 15.8382 23.6592 14.5228 24.259C13.2074 23.6945 2.90324 19.0018 1.00319 10.7807C-0.129537 5.841 2.61092 2.31264 5.60715 1.18356C6.37448 0.90129 7.17835 0.724873 8.05529 0.724873C10.1746 0.724873 12.4766 1.71281 14.1939 4.5355C14.3401 4.7472 14.7055 4.7472 14.8151 4.5355C17.2632 0.583738 20.8441 0.230902 23.4019 1.18356C26.4712 2.31264 29.2116 5.841 28.0424 10.7807Z" fill="#FF0000"/>
</svg>
