<svg width="24" height="21" viewBox="0 0 24 21" fill="none" xmlns="http://www.w3.org/2000/svg">
<path d="M11.9968 20C11.9961 20 11.9952 20 11.994 20C11.9877 20 11.9883 19.9998 11.994 19.9999M11.9968 20L11.994 19.9999M11.9968 20C11.9958 20 11.9948 19.9999 11.994 19.9999M11.9968 20L11.994 19.9999M19.2045 1.36248L19.2063 1.36318C21.526 2.26448 23.695 4.99634 22.7884 8.95088L22.7877 8.95366C21.9634 12.5972 19.0971 15.4072 16.6851 17.1694L16.6819 17.1718C14.5595 18.7351 12.6137 19.6583 12.0018 19.9329C11.2697 19.6018 9.38217 18.7009 7.3069 17.1723C4.91719 15.4047 2.02505 12.5955 1.20071 8.95542C0.320671 4.99686 2.49371 2.26249 4.78445 1.36212C7.09953 0.457985 9.55377 1.26738 11.1681 3.6326L11.994 4.84276L12.82 3.6326C14.4345 1.26707 16.8892 0.45777 19.2045 1.36248Z" stroke="#FF0000" stroke-width="2"/>
</svg>
